<mxfile host="app.diagrams.net" modified="2023-06-07T05:47:09.161Z" agent="Mozilla/5.0 (Windows NT 10.0; Win64; x64) AppleWebKit/537.36 (KHTML, like Gecko) Chrome/114.0.0.0 Safari/537.36" etag="tfPrHVczq_xbXKK8hcH8" version="21.3.7" type="device">
  <diagram name="第 1 页" id="mhfQkmUK0OUH3zqNwXaf">
    <mxGraphModel dx="1708" dy="2893" grid="1" gridSize="10" guides="1" tooltips="1" connect="1" arrows="1" fold="1" page="1" pageScale="1" pageWidth="827" pageHeight="1169" math="0" shadow="0">
      <root>
        <mxCell id="0" />
        <mxCell id="1" parent="0" />
        <mxCell id="-13MYeut4_JvDxcLs2VD-1" value="" style="verticalLabelPosition=bottom;verticalAlign=top;html=1;shadow=0;dashed=0;strokeWidth=1;shape=mxgraph.android.phone2;strokeColor=#6c8ebf;fillColor=#000000;" vertex="1" parent="1">
          <mxGeometry x="120" y="80" width="240" height="440" as="geometry" />
        </mxCell>
        <mxCell id="-13MYeut4_JvDxcLs2VD-2" value="状态栏" style="rounded=0;whiteSpace=wrap;html=1;" vertex="1" parent="1">
          <mxGeometry x="130" y="120" width="220" height="20" as="geometry" />
        </mxCell>
        <mxCell id="-13MYeut4_JvDxcLs2VD-3" value="" style="rounded=0;whiteSpace=wrap;html=1;strokeWidth=1;" vertex="1" parent="1">
          <mxGeometry x="130" y="440" width="220" height="40" as="geometry" />
        </mxCell>
        <mxCell id="-13MYeut4_JvDxcLs2VD-4" value="" style="rounded=0;whiteSpace=wrap;html=1;" vertex="1" parent="1">
          <mxGeometry x="130" y="160" width="220" height="280" as="geometry" />
        </mxCell>
        <mxCell id="-13MYeut4_JvDxcLs2VD-5" value="&lt;pre&gt;&lt;font style=&quot;font-size: 11px;&quot;&gt;首页&lt;/font&gt;&lt;/pre&gt;" style="ellipse;whiteSpace=wrap;html=1;aspect=fixed;" vertex="1" parent="1">
          <mxGeometry x="225" y="445" width="30" height="30" as="geometry" />
        </mxCell>
        <mxCell id="-13MYeut4_JvDxcLs2VD-6" value="&lt;pre&gt;&lt;font style=&quot;font-size: 11px;&quot;&gt;我的&lt;/font&gt;&lt;/pre&gt;" style="ellipse;whiteSpace=wrap;html=1;aspect=fixed;" vertex="1" parent="1">
          <mxGeometry x="310" y="445" width="30" height="30" as="geometry" />
        </mxCell>
        <mxCell id="-13MYeut4_JvDxcLs2VD-7" value="&lt;pre&gt;&lt;font style=&quot;font-size: 11px;&quot;&gt;消息&lt;/font&gt;&lt;/pre&gt;" style="ellipse;whiteSpace=wrap;html=1;aspect=fixed;fillColor=#dae8fc;strokeColor=#6c8ebf;" vertex="1" parent="1">
          <mxGeometry x="140" y="445" width="30" height="30" as="geometry" />
        </mxCell>
        <mxCell id="-13MYeut4_JvDxcLs2VD-8" value="导航栏" style="rounded=0;whiteSpace=wrap;html=1;" vertex="1" parent="1">
          <mxGeometry x="130" y="140" width="220" height="20" as="geometry" />
        </mxCell>
        <mxCell id="-13MYeut4_JvDxcLs2VD-25" value="" style="verticalLabelPosition=bottom;verticalAlign=top;html=1;shadow=0;dashed=0;strokeWidth=1;shape=mxgraph.android.phone2;strokeColor=#6c8ebf;fillColor=#000000;" vertex="1" parent="1">
          <mxGeometry x="400" y="80" width="240" height="440" as="geometry" />
        </mxCell>
        <mxCell id="-13MYeut4_JvDxcLs2VD-26" value="状态栏" style="rounded=0;whiteSpace=wrap;html=1;" vertex="1" parent="1">
          <mxGeometry x="410" y="120" width="220" height="20" as="geometry" />
        </mxCell>
        <mxCell id="-13MYeut4_JvDxcLs2VD-27" value="" style="rounded=0;whiteSpace=wrap;html=1;strokeWidth=1;" vertex="1" parent="1">
          <mxGeometry x="410" y="440" width="220" height="40" as="geometry" />
        </mxCell>
        <mxCell id="-13MYeut4_JvDxcLs2VD-28" value="" style="rounded=0;whiteSpace=wrap;html=1;" vertex="1" parent="1">
          <mxGeometry x="410" y="160" width="220" height="280" as="geometry" />
        </mxCell>
        <mxCell id="-13MYeut4_JvDxcLs2VD-29" value="&lt;pre&gt;&lt;font style=&quot;font-size: 11px;&quot;&gt;首页&lt;/font&gt;&lt;/pre&gt;" style="ellipse;whiteSpace=wrap;html=1;aspect=fixed;fillColor=#dae8fc;strokeColor=#6c8ebf;" vertex="1" parent="1">
          <mxGeometry x="505" y="445" width="30" height="30" as="geometry" />
        </mxCell>
        <mxCell id="-13MYeut4_JvDxcLs2VD-92" style="edgeStyle=orthogonalEdgeStyle;rounded=0;orthogonalLoop=1;jettySize=auto;html=1;entryX=-0.018;entryY=0.863;entryDx=0;entryDy=0;entryPerimeter=0;" edge="1" parent="1" source="-13MYeut4_JvDxcLs2VD-30" target="-13MYeut4_JvDxcLs2VD-33">
          <mxGeometry relative="1" as="geometry" />
        </mxCell>
        <mxCell id="-13MYeut4_JvDxcLs2VD-30" value="&lt;pre&gt;&lt;font style=&quot;font-size: 11px;&quot;&gt;我的&lt;/font&gt;&lt;/pre&gt;" style="ellipse;whiteSpace=wrap;html=1;aspect=fixed;" vertex="1" parent="1">
          <mxGeometry x="590" y="445" width="30" height="30" as="geometry" />
        </mxCell>
        <mxCell id="-13MYeut4_JvDxcLs2VD-91" style="edgeStyle=orthogonalEdgeStyle;rounded=0;orthogonalLoop=1;jettySize=auto;html=1;exitX=0;exitY=0.5;exitDx=0;exitDy=0;entryX=1.003;entryY=0.864;entryDx=0;entryDy=0;entryPerimeter=0;" edge="1" parent="1" source="-13MYeut4_JvDxcLs2VD-31" target="-13MYeut4_JvDxcLs2VD-1">
          <mxGeometry relative="1" as="geometry" />
        </mxCell>
        <mxCell id="-13MYeut4_JvDxcLs2VD-31" value="&lt;pre&gt;&lt;font style=&quot;font-size: 11px;&quot;&gt;消息&lt;/font&gt;&lt;/pre&gt;" style="ellipse;whiteSpace=wrap;html=1;aspect=fixed;" vertex="1" parent="1">
          <mxGeometry x="420" y="445" width="30" height="30" as="geometry" />
        </mxCell>
        <mxCell id="-13MYeut4_JvDxcLs2VD-32" value="导航栏" style="rounded=0;whiteSpace=wrap;html=1;" vertex="1" parent="1">
          <mxGeometry x="410" y="140" width="220" height="20" as="geometry" />
        </mxCell>
        <mxCell id="-13MYeut4_JvDxcLs2VD-33" value="" style="verticalLabelPosition=bottom;verticalAlign=top;html=1;shadow=0;dashed=0;strokeWidth=1;shape=mxgraph.android.phone2;strokeColor=#6c8ebf;fillColor=#000000;" vertex="1" parent="1">
          <mxGeometry x="680" y="80" width="240" height="440" as="geometry" />
        </mxCell>
        <mxCell id="-13MYeut4_JvDxcLs2VD-34" value="状态栏" style="rounded=0;whiteSpace=wrap;html=1;" vertex="1" parent="1">
          <mxGeometry x="690" y="120" width="220" height="20" as="geometry" />
        </mxCell>
        <mxCell id="-13MYeut4_JvDxcLs2VD-35" value="" style="rounded=0;whiteSpace=wrap;html=1;strokeWidth=1;" vertex="1" parent="1">
          <mxGeometry x="690" y="440" width="220" height="40" as="geometry" />
        </mxCell>
        <mxCell id="-13MYeut4_JvDxcLs2VD-36" value="" style="rounded=0;whiteSpace=wrap;html=1;" vertex="1" parent="1">
          <mxGeometry x="690" y="160" width="220" height="280" as="geometry" />
        </mxCell>
        <mxCell id="-13MYeut4_JvDxcLs2VD-37" value="&lt;pre&gt;&lt;font style=&quot;font-size: 11px;&quot;&gt;首页&lt;/font&gt;&lt;/pre&gt;" style="ellipse;whiteSpace=wrap;html=1;aspect=fixed;" vertex="1" parent="1">
          <mxGeometry x="785" y="445" width="30" height="30" as="geometry" />
        </mxCell>
        <mxCell id="-13MYeut4_JvDxcLs2VD-38" value="&lt;pre&gt;&lt;font style=&quot;font-size: 11px;&quot;&gt;我的&lt;/font&gt;&lt;/pre&gt;" style="ellipse;whiteSpace=wrap;html=1;aspect=fixed;fillColor=#dae8fc;strokeColor=#6c8ebf;" vertex="1" parent="1">
          <mxGeometry x="870" y="445" width="30" height="30" as="geometry" />
        </mxCell>
        <mxCell id="-13MYeut4_JvDxcLs2VD-39" value="&lt;pre&gt;&lt;font style=&quot;font-size: 11px;&quot;&gt;消息&lt;/font&gt;&lt;/pre&gt;" style="ellipse;whiteSpace=wrap;html=1;aspect=fixed;" vertex="1" parent="1">
          <mxGeometry x="700" y="445" width="30" height="30" as="geometry" />
        </mxCell>
        <mxCell id="-13MYeut4_JvDxcLs2VD-40" value="导航栏" style="rounded=0;whiteSpace=wrap;html=1;" vertex="1" parent="1">
          <mxGeometry x="690" y="140" width="220" height="20" as="geometry" />
        </mxCell>
        <mxCell id="-13MYeut4_JvDxcLs2VD-316" style="edgeStyle=orthogonalEdgeStyle;rounded=0;orthogonalLoop=1;jettySize=auto;html=1;entryX=0.499;entryY=0.999;entryDx=0;entryDy=0;entryPerimeter=0;" edge="1" parent="1" source="-13MYeut4_JvDxcLs2VD-42" target="-13MYeut4_JvDxcLs2VD-162">
          <mxGeometry relative="1" as="geometry" />
        </mxCell>
        <mxCell id="-13MYeut4_JvDxcLs2VD-42" value="" style="rounded=0;whiteSpace=wrap;html=1;" vertex="1" parent="1">
          <mxGeometry x="420" y="170" width="200" height="110" as="geometry" />
        </mxCell>
        <mxCell id="-13MYeut4_JvDxcLs2VD-47" value="" style="verticalLabelPosition=bottom;shadow=0;dashed=0;align=center;html=1;verticalAlign=top;strokeWidth=1;shape=mxgraph.mockup.containers.userMale;strokeColor=#666666;strokeColor2=#008cff;" vertex="1" parent="1">
          <mxGeometry x="430" y="180" width="20" height="20" as="geometry" />
        </mxCell>
        <mxCell id="-13MYeut4_JvDxcLs2VD-143" value="用户名" style="text;html=1;strokeColor=none;fillColor=none;align=center;verticalAlign=middle;whiteSpace=wrap;rounded=0;" vertex="1" parent="1">
          <mxGeometry x="450" y="180" width="45" height="10" as="geometry" />
        </mxCell>
        <mxCell id="-13MYeut4_JvDxcLs2VD-144" value="发布时间" style="text;html=1;strokeColor=none;fillColor=none;align=center;verticalAlign=middle;whiteSpace=wrap;rounded=0;" vertex="1" parent="1">
          <mxGeometry x="495" y="177.5" width="50" height="15" as="geometry" />
        </mxCell>
        <mxCell id="-13MYeut4_JvDxcLs2VD-145" value="发布内容发布内容发布内容发布内容发布内容发布内容发布内容发布内容发布内容发布···" style="text;html=1;strokeColor=none;fillColor=none;align=center;verticalAlign=middle;whiteSpace=wrap;rounded=0;" vertex="1" parent="1">
          <mxGeometry x="450" y="211.25" width="160" height="27.5" as="geometry" />
        </mxCell>
        <mxCell id="-13MYeut4_JvDxcLs2VD-146" value="👍" style="ellipse;whiteSpace=wrap;html=1;aspect=fixed;" vertex="1" parent="1">
          <mxGeometry x="559.37" y="250" width="21.25" height="21.25" as="geometry" />
        </mxCell>
        <mxCell id="-13MYeut4_JvDxcLs2VD-148" value="👎" style="ellipse;whiteSpace=wrap;html=1;aspect=fixed;" vertex="1" parent="1">
          <mxGeometry x="588.75" y="250" width="21.25" height="21.25" as="geometry" />
        </mxCell>
        <mxCell id="-13MYeut4_JvDxcLs2VD-154" value="" style="rounded=0;whiteSpace=wrap;html=1;" vertex="1" parent="1">
          <mxGeometry x="420" y="300" width="200" height="110" as="geometry" />
        </mxCell>
        <mxCell id="-13MYeut4_JvDxcLs2VD-155" value="" style="verticalLabelPosition=bottom;shadow=0;dashed=0;align=center;html=1;verticalAlign=top;strokeWidth=1;shape=mxgraph.mockup.containers.userMale;strokeColor=#666666;strokeColor2=#008cff;" vertex="1" parent="1">
          <mxGeometry x="430" y="310" width="20" height="20" as="geometry" />
        </mxCell>
        <mxCell id="-13MYeut4_JvDxcLs2VD-156" value="用户名" style="text;html=1;strokeColor=none;fillColor=none;align=center;verticalAlign=middle;whiteSpace=wrap;rounded=0;" vertex="1" parent="1">
          <mxGeometry x="450" y="310" width="45" height="10" as="geometry" />
        </mxCell>
        <mxCell id="-13MYeut4_JvDxcLs2VD-157" value="发布时间" style="text;html=1;strokeColor=none;fillColor=none;align=center;verticalAlign=middle;whiteSpace=wrap;rounded=0;" vertex="1" parent="1">
          <mxGeometry x="495" y="307.5" width="50" height="15" as="geometry" />
        </mxCell>
        <mxCell id="-13MYeut4_JvDxcLs2VD-158" value="发布内容发布内容发布内容发布内容发布内容发布内容发布内容发布内容发布内容发布···" style="text;html=1;strokeColor=none;fillColor=none;align=center;verticalAlign=middle;whiteSpace=wrap;rounded=0;" vertex="1" parent="1">
          <mxGeometry x="450" y="341.25" width="160" height="27.5" as="geometry" />
        </mxCell>
        <mxCell id="-13MYeut4_JvDxcLs2VD-159" value="👍" style="ellipse;whiteSpace=wrap;html=1;aspect=fixed;" vertex="1" parent="1">
          <mxGeometry x="559.37" y="380" width="21.25" height="21.25" as="geometry" />
        </mxCell>
        <mxCell id="-13MYeut4_JvDxcLs2VD-160" value="👎" style="ellipse;whiteSpace=wrap;html=1;aspect=fixed;" vertex="1" parent="1">
          <mxGeometry x="588.75" y="380" width="21.25" height="21.25" as="geometry" />
        </mxCell>
        <mxCell id="-13MYeut4_JvDxcLs2VD-162" value="" style="verticalLabelPosition=bottom;verticalAlign=top;html=1;shadow=0;dashed=0;strokeWidth=1;shape=mxgraph.android.phone2;strokeColor=#6c8ebf;fillColor=#000000;" vertex="1" parent="1">
          <mxGeometry x="400" y="-460" width="240" height="440" as="geometry" />
        </mxCell>
        <mxCell id="-13MYeut4_JvDxcLs2VD-163" value="状态栏" style="rounded=0;whiteSpace=wrap;html=1;" vertex="1" parent="1">
          <mxGeometry x="410" y="-420" width="220" height="20" as="geometry" />
        </mxCell>
        <mxCell id="-13MYeut4_JvDxcLs2VD-164" value="" style="rounded=0;whiteSpace=wrap;html=1;strokeWidth=1;" vertex="1" parent="1">
          <mxGeometry x="410" y="-100" width="220" height="40" as="geometry" />
        </mxCell>
        <mxCell id="-13MYeut4_JvDxcLs2VD-165" value="" style="rounded=0;whiteSpace=wrap;html=1;" vertex="1" parent="1">
          <mxGeometry x="410" y="-380" width="220" height="280" as="geometry" />
        </mxCell>
        <mxCell id="-13MYeut4_JvDxcLs2VD-166" value="&lt;pre&gt;&lt;font style=&quot;font-size: 11px;&quot;&gt;首页&lt;/font&gt;&lt;/pre&gt;" style="ellipse;whiteSpace=wrap;html=1;aspect=fixed;fillColor=#dae8fc;strokeColor=#6c8ebf;" vertex="1" parent="1">
          <mxGeometry x="505" y="-95" width="30" height="30" as="geometry" />
        </mxCell>
        <mxCell id="-13MYeut4_JvDxcLs2VD-167" value="&lt;pre&gt;&lt;font style=&quot;font-size: 11px;&quot;&gt;我的&lt;/font&gt;&lt;/pre&gt;" style="ellipse;whiteSpace=wrap;html=1;aspect=fixed;" vertex="1" parent="1">
          <mxGeometry x="590" y="-95" width="30" height="30" as="geometry" />
        </mxCell>
        <mxCell id="-13MYeut4_JvDxcLs2VD-168" value="&lt;pre&gt;&lt;font style=&quot;font-size: 11px;&quot;&gt;消息&lt;/font&gt;&lt;/pre&gt;" style="ellipse;whiteSpace=wrap;html=1;aspect=fixed;" vertex="1" parent="1">
          <mxGeometry x="420" y="-95" width="30" height="30" as="geometry" />
        </mxCell>
        <mxCell id="-13MYeut4_JvDxcLs2VD-169" value="导航栏" style="rounded=0;whiteSpace=wrap;html=1;" vertex="1" parent="1">
          <mxGeometry x="410" y="-400" width="220" height="20" as="geometry" />
        </mxCell>
        <mxCell id="-13MYeut4_JvDxcLs2VD-335" style="edgeStyle=orthogonalEdgeStyle;rounded=0;orthogonalLoop=1;jettySize=auto;html=1;entryX=1.017;entryY=0.234;entryDx=0;entryDy=0;entryPerimeter=0;" edge="1" parent="1" source="-13MYeut4_JvDxcLs2VD-174" target="-13MYeut4_JvDxcLs2VD-326">
          <mxGeometry relative="1" as="geometry" />
        </mxCell>
        <mxCell id="-13MYeut4_JvDxcLs2VD-174" value="&lt;p style=&quot;line-height: 100%; font-size: 12px;&quot;&gt;Line item unselected&lt;/p&gt;" style="dashed=0;shape=rect;fillColor=#ffffff;strokeColor=default;verticalLabelPosition=middle;align=left;verticalAlign=middle;fontSize=15;spacingLeft=20;whiteSpace=wrap;html=1;spacingRight=20;labelBorderColor=none;" vertex="1" parent="1">
          <mxGeometry x="140" y="170" width="200" height="26.41" as="geometry" />
        </mxCell>
        <mxCell id="-13MYeut4_JvDxcLs2VD-176" value="" style="dashed=0;shape=mxgraph.gmdl.message;strokeColor=#ffffff;fillColor=#666666;strokeWidth=2;" vertex="1" parent="-13MYeut4_JvDxcLs2VD-174">
          <mxGeometry x="1" y="0.5" width="20" height="18" relative="1" as="geometry">
            <mxPoint x="-36" y="-9" as="offset" />
          </mxGeometry>
        </mxCell>
        <mxCell id="-13MYeut4_JvDxcLs2VD-177" value="&lt;p style=&quot;line-height: 100%; font-size: 12px;&quot;&gt;Line item unselected&lt;/p&gt;" style="dashed=0;shape=rect;fillColor=#ffffff;strokeColor=default;verticalLabelPosition=middle;align=left;verticalAlign=middle;fontSize=15;spacingLeft=20;whiteSpace=wrap;html=1;spacingRight=20;labelBorderColor=none;" vertex="1" parent="1">
          <mxGeometry x="140" y="211.25" width="200" height="26.41" as="geometry" />
        </mxCell>
        <mxCell id="-13MYeut4_JvDxcLs2VD-178" value="" style="dashed=0;shape=mxgraph.gmdl.message;strokeColor=#ffffff;fillColor=#666666;strokeWidth=2;" vertex="1" parent="-13MYeut4_JvDxcLs2VD-177">
          <mxGeometry x="1" y="0.5" width="20" height="18" relative="1" as="geometry">
            <mxPoint x="-36" y="-9" as="offset" />
          </mxGeometry>
        </mxCell>
        <mxCell id="-13MYeut4_JvDxcLs2VD-179" value="&lt;p style=&quot;line-height: 100%; font-size: 12px;&quot;&gt;Line item unselected&lt;/p&gt;" style="dashed=0;shape=rect;fillColor=#ffffff;strokeColor=default;verticalLabelPosition=middle;align=left;verticalAlign=middle;fontSize=15;spacingLeft=20;whiteSpace=wrap;html=1;spacingRight=20;labelBorderColor=none;" vertex="1" parent="1">
          <mxGeometry x="140" y="250" width="200" height="26.41" as="geometry" />
        </mxCell>
        <mxCell id="-13MYeut4_JvDxcLs2VD-180" value="" style="dashed=0;shape=mxgraph.gmdl.message;strokeColor=#ffffff;fillColor=#666666;strokeWidth=2;" vertex="1" parent="-13MYeut4_JvDxcLs2VD-179">
          <mxGeometry x="1" y="0.5" width="20" height="18" relative="1" as="geometry">
            <mxPoint x="-36" y="-9" as="offset" />
          </mxGeometry>
        </mxCell>
        <mxCell id="-13MYeut4_JvDxcLs2VD-181" value="&lt;p style=&quot;line-height: 100%; font-size: 12px;&quot;&gt;Line item unselected&lt;/p&gt;" style="dashed=0;shape=rect;fillColor=#ffffff;strokeColor=default;verticalLabelPosition=middle;align=left;verticalAlign=middle;fontSize=15;spacingLeft=20;whiteSpace=wrap;html=1;spacingRight=20;labelBorderColor=none;" vertex="1" parent="1">
          <mxGeometry x="140" y="286.8" width="200" height="26.41" as="geometry" />
        </mxCell>
        <mxCell id="-13MYeut4_JvDxcLs2VD-182" value="" style="dashed=0;shape=mxgraph.gmdl.message;strokeColor=#ffffff;fillColor=#666666;strokeWidth=2;" vertex="1" parent="-13MYeut4_JvDxcLs2VD-181">
          <mxGeometry x="1" y="0.5" width="20" height="18" relative="1" as="geometry">
            <mxPoint x="-36" y="-9" as="offset" />
          </mxGeometry>
        </mxCell>
        <mxCell id="-13MYeut4_JvDxcLs2VD-183" value="&lt;p style=&quot;line-height: 100%; font-size: 12px;&quot;&gt;Line item unselected&lt;/p&gt;" style="dashed=0;shape=rect;fillColor=#ffffff;strokeColor=default;verticalLabelPosition=middle;align=left;verticalAlign=middle;fontSize=15;spacingLeft=20;whiteSpace=wrap;html=1;spacingRight=20;labelBorderColor=none;" vertex="1" parent="1">
          <mxGeometry x="140" y="322.5" width="200" height="26.41" as="geometry" />
        </mxCell>
        <mxCell id="-13MYeut4_JvDxcLs2VD-184" value="" style="dashed=0;shape=mxgraph.gmdl.message;strokeColor=#ffffff;fillColor=#666666;strokeWidth=2;" vertex="1" parent="-13MYeut4_JvDxcLs2VD-183">
          <mxGeometry x="1" y="0.5" width="20" height="18" relative="1" as="geometry">
            <mxPoint x="-36" y="-9" as="offset" />
          </mxGeometry>
        </mxCell>
        <mxCell id="-13MYeut4_JvDxcLs2VD-185" value="&lt;p style=&quot;line-height: 100%; font-size: 12px;&quot;&gt;Line item unselected&lt;/p&gt;" style="dashed=0;shape=rect;fillColor=#ffffff;strokeColor=default;verticalLabelPosition=middle;align=left;verticalAlign=middle;fontSize=15;spacingLeft=20;whiteSpace=wrap;html=1;spacingRight=20;labelBorderColor=none;" vertex="1" parent="1">
          <mxGeometry x="140" y="360" width="200" height="26.41" as="geometry" />
        </mxCell>
        <mxCell id="-13MYeut4_JvDxcLs2VD-186" value="" style="dashed=0;shape=mxgraph.gmdl.message;strokeColor=#ffffff;fillColor=#666666;strokeWidth=2;" vertex="1" parent="-13MYeut4_JvDxcLs2VD-185">
          <mxGeometry x="1" y="0.5" width="20" height="18" relative="1" as="geometry">
            <mxPoint x="-36" y="-9" as="offset" />
          </mxGeometry>
        </mxCell>
        <mxCell id="-13MYeut4_JvDxcLs2VD-187" value="&lt;p style=&quot;line-height: 100%; font-size: 12px;&quot;&gt;Line item unselected&lt;/p&gt;" style="dashed=0;shape=rect;fillColor=#ffffff;strokeColor=default;verticalLabelPosition=middle;align=left;verticalAlign=middle;fontSize=15;spacingLeft=20;whiteSpace=wrap;html=1;spacingRight=20;labelBorderColor=none;" vertex="1" parent="1">
          <mxGeometry x="140" y="400" width="200" height="26.41" as="geometry" />
        </mxCell>
        <mxCell id="-13MYeut4_JvDxcLs2VD-188" value="" style="dashed=0;shape=mxgraph.gmdl.message;strokeColor=#ffffff;fillColor=#666666;strokeWidth=2;" vertex="1" parent="-13MYeut4_JvDxcLs2VD-187">
          <mxGeometry x="1" y="0.5" width="20" height="18" relative="1" as="geometry">
            <mxPoint x="-36" y="-9" as="offset" />
          </mxGeometry>
        </mxCell>
        <mxCell id="-13MYeut4_JvDxcLs2VD-189" value="" style="rounded=0;whiteSpace=wrap;html=1;" vertex="1" parent="1">
          <mxGeometry x="690" y="160" width="220" height="60" as="geometry" />
        </mxCell>
        <mxCell id="-13MYeut4_JvDxcLs2VD-191" value="" style="verticalLabelPosition=bottom;shadow=0;dashed=0;align=center;html=1;verticalAlign=top;strokeWidth=1;shape=mxgraph.mockup.containers.userFemale;strokeColor=#666666;strokeColor2=#008cff;" vertex="1" parent="1">
          <mxGeometry x="700" y="170" width="40" height="40" as="geometry" />
        </mxCell>
        <mxCell id="-13MYeut4_JvDxcLs2VD-192" value="昵称" style="text;html=1;strokeColor=none;fillColor=none;align=center;verticalAlign=middle;whiteSpace=wrap;rounded=0;" vertex="1" parent="1">
          <mxGeometry x="750" y="170" width="30" height="10" as="geometry" />
        </mxCell>
        <mxCell id="-13MYeut4_JvDxcLs2VD-194" value="♂" style="text;html=1;strokeColor=none;fillColor=none;align=center;verticalAlign=middle;whiteSpace=wrap;rounded=0;" vertex="1" parent="1">
          <mxGeometry x="780" y="170" width="20" height="10" as="geometry" />
        </mxCell>
        <mxCell id="-13MYeut4_JvDxcLs2VD-195" value="等级" style="rounded=0;whiteSpace=wrap;html=1;" vertex="1" parent="1">
          <mxGeometry x="750" y="183.91" width="130" height="12.5" as="geometry" />
        </mxCell>
        <mxCell id="-13MYeut4_JvDxcLs2VD-270" style="edgeStyle=orthogonalEdgeStyle;rounded=0;orthogonalLoop=1;jettySize=auto;html=1;entryX=0;entryY=0.545;entryDx=0;entryDy=0;entryPerimeter=0;" edge="1" parent="1" source="-13MYeut4_JvDxcLs2VD-196" target="-13MYeut4_JvDxcLs2VD-205">
          <mxGeometry relative="1" as="geometry" />
        </mxCell>
        <mxCell id="-13MYeut4_JvDxcLs2VD-196" value="每日签到" style="rounded=0;whiteSpace=wrap;html=1;" vertex="1" parent="1">
          <mxGeometry x="700" y="226.8" width="200" height="23.2" as="geometry" />
        </mxCell>
        <mxCell id="-13MYeut4_JvDxcLs2VD-198" value="&lt;font style=&quot;font-size: 20px;&quot;&gt;&amp;gt;&lt;/font&gt;" style="text;html=1;strokeColor=none;fillColor=none;align=center;verticalAlign=middle;whiteSpace=wrap;rounded=0;" vertex="1" parent="1">
          <mxGeometry x="880" y="170" width="40" height="40" as="geometry" />
        </mxCell>
        <mxCell id="-13MYeut4_JvDxcLs2VD-285" style="edgeStyle=orthogonalEdgeStyle;rounded=0;orthogonalLoop=1;jettySize=auto;html=1;entryX=-0.014;entryY=0.429;entryDx=0;entryDy=0;entryPerimeter=0;" edge="1" parent="1" source="-13MYeut4_JvDxcLs2VD-199" target="-13MYeut4_JvDxcLs2VD-232">
          <mxGeometry relative="1" as="geometry" />
        </mxCell>
        <mxCell id="-13MYeut4_JvDxcLs2VD-199" value="分享好友" style="rounded=0;whiteSpace=wrap;html=1;" vertex="1" parent="1">
          <mxGeometry x="700" y="256.8" width="200" height="23.2" as="geometry" />
        </mxCell>
        <mxCell id="-13MYeut4_JvDxcLs2VD-288" style="edgeStyle=orthogonalEdgeStyle;rounded=0;orthogonalLoop=1;jettySize=auto;html=1;entryX=0;entryY=0.542;entryDx=0;entryDy=0;entryPerimeter=0;" edge="1" parent="1" source="-13MYeut4_JvDxcLs2VD-200" target="-13MYeut4_JvDxcLs2VD-261">
          <mxGeometry relative="1" as="geometry">
            <Array as="points">
              <mxPoint x="950" y="300" />
              <mxPoint x="950" y="799" />
            </Array>
          </mxGeometry>
        </mxCell>
        <mxCell id="-13MYeut4_JvDxcLs2VD-200" value="消息设置" style="rounded=0;whiteSpace=wrap;html=1;" vertex="1" parent="1">
          <mxGeometry x="700" y="288.40000000000003" width="200" height="23.2" as="geometry" />
        </mxCell>
        <mxCell id="-13MYeut4_JvDxcLs2VD-202" value="体力值" style="rounded=0;whiteSpace=wrap;html=1;" vertex="1" parent="1">
          <mxGeometry x="750" y="200" width="130" height="12.5" as="geometry" />
        </mxCell>
        <mxCell id="-13MYeut4_JvDxcLs2VD-313" style="edgeStyle=orthogonalEdgeStyle;rounded=0;orthogonalLoop=1;jettySize=auto;html=1;entryX=0.003;entryY=0.512;entryDx=0;entryDy=0;entryPerimeter=0;" edge="1" parent="1" source="-13MYeut4_JvDxcLs2VD-203" target="-13MYeut4_JvDxcLs2VD-304">
          <mxGeometry relative="1" as="geometry">
            <Array as="points">
              <mxPoint x="930" y="332" />
              <mxPoint x="930" y="1265" />
            </Array>
          </mxGeometry>
        </mxCell>
        <mxCell id="-13MYeut4_JvDxcLs2VD-203" value="留言反馈" style="rounded=0;whiteSpace=wrap;html=1;" vertex="1" parent="1">
          <mxGeometry x="700" y="320.00000000000006" width="200" height="23.2" as="geometry" />
        </mxCell>
        <mxCell id="-13MYeut4_JvDxcLs2VD-250" style="edgeStyle=orthogonalEdgeStyle;rounded=0;orthogonalLoop=1;jettySize=auto;html=1;entryX=0;entryY=0.542;entryDx=0;entryDy=0;entryPerimeter=0;" edge="1" parent="1" source="-13MYeut4_JvDxcLs2VD-204" target="-13MYeut4_JvDxcLs2VD-241">
          <mxGeometry relative="1" as="geometry">
            <Array as="points">
              <mxPoint x="790" y="1758" />
            </Array>
          </mxGeometry>
        </mxCell>
        <mxCell id="-13MYeut4_JvDxcLs2VD-204" value="Vip充值" style="rounded=0;whiteSpace=wrap;html=1;" vertex="1" parent="1">
          <mxGeometry x="700" y="348.9100000000001" width="200" height="23.2" as="geometry" />
        </mxCell>
        <mxCell id="-13MYeut4_JvDxcLs2VD-205" value="" style="verticalLabelPosition=bottom;verticalAlign=top;html=1;shadow=0;dashed=0;strokeWidth=1;shape=mxgraph.android.phone2;strokeColor=#6c8ebf;fillColor=#000000;" vertex="1" parent="1">
          <mxGeometry x="960" y="-400" width="240" height="440" as="geometry" />
        </mxCell>
        <mxCell id="-13MYeut4_JvDxcLs2VD-206" value="状态栏" style="rounded=0;whiteSpace=wrap;html=1;" vertex="1" parent="1">
          <mxGeometry x="970" y="-360" width="220" height="20" as="geometry" />
        </mxCell>
        <mxCell id="-13MYeut4_JvDxcLs2VD-207" value="" style="rounded=0;whiteSpace=wrap;html=1;strokeWidth=1;" vertex="1" parent="1">
          <mxGeometry x="970" y="-40" width="220" height="40" as="geometry" />
        </mxCell>
        <mxCell id="-13MYeut4_JvDxcLs2VD-208" value="" style="rounded=0;whiteSpace=wrap;html=1;" vertex="1" parent="1">
          <mxGeometry x="970" y="-320" width="220" height="280" as="geometry" />
        </mxCell>
        <mxCell id="-13MYeut4_JvDxcLs2VD-209" value="&lt;pre&gt;&lt;font style=&quot;font-size: 11px;&quot;&gt;首页&lt;/font&gt;&lt;/pre&gt;" style="ellipse;whiteSpace=wrap;html=1;aspect=fixed;" vertex="1" parent="1">
          <mxGeometry x="1065" y="-35" width="30" height="30" as="geometry" />
        </mxCell>
        <mxCell id="-13MYeut4_JvDxcLs2VD-210" value="&lt;pre&gt;&lt;font style=&quot;font-size: 11px;&quot;&gt;我的&lt;/font&gt;&lt;/pre&gt;" style="ellipse;whiteSpace=wrap;html=1;aspect=fixed;fillColor=#dae8fc;strokeColor=#6c8ebf;" vertex="1" parent="1">
          <mxGeometry x="1150" y="-35" width="30" height="30" as="geometry" />
        </mxCell>
        <mxCell id="-13MYeut4_JvDxcLs2VD-211" value="&lt;pre&gt;&lt;font style=&quot;font-size: 11px;&quot;&gt;消息&lt;/font&gt;&lt;/pre&gt;" style="ellipse;whiteSpace=wrap;html=1;aspect=fixed;" vertex="1" parent="1">
          <mxGeometry x="980" y="-35" width="30" height="30" as="geometry" />
        </mxCell>
        <mxCell id="-13MYeut4_JvDxcLs2VD-212" value="导航栏" style="rounded=0;whiteSpace=wrap;html=1;" vertex="1" parent="1">
          <mxGeometry x="970" y="-340" width="220" height="20" as="geometry" />
        </mxCell>
        <mxCell id="-13MYeut4_JvDxcLs2VD-213" value="" style="rounded=0;whiteSpace=wrap;html=1;" vertex="1" parent="1">
          <mxGeometry x="974" y="-310" width="206" height="260" as="geometry" />
        </mxCell>
        <mxCell id="-13MYeut4_JvDxcLs2VD-232" value="" style="verticalLabelPosition=bottom;verticalAlign=top;html=1;shadow=0;dashed=0;strokeWidth=1;shape=mxgraph.android.phone2;strokeColor=#6c8ebf;fillColor=#000000;" vertex="1" parent="1">
          <mxGeometry x="960" y="80.00999999999999" width="240" height="440" as="geometry" />
        </mxCell>
        <mxCell id="-13MYeut4_JvDxcLs2VD-233" value="状态栏" style="rounded=0;whiteSpace=wrap;html=1;" vertex="1" parent="1">
          <mxGeometry x="970" y="120.00999999999999" width="220" height="20" as="geometry" />
        </mxCell>
        <mxCell id="-13MYeut4_JvDxcLs2VD-234" value="" style="rounded=0;whiteSpace=wrap;html=1;strokeWidth=1;" vertex="1" parent="1">
          <mxGeometry x="970" y="440.01" width="220" height="40" as="geometry" />
        </mxCell>
        <mxCell id="-13MYeut4_JvDxcLs2VD-235" value="" style="rounded=0;whiteSpace=wrap;html=1;" vertex="1" parent="1">
          <mxGeometry x="970" y="160.01" width="220" height="280" as="geometry" />
        </mxCell>
        <mxCell id="-13MYeut4_JvDxcLs2VD-236" value="&lt;pre&gt;&lt;font style=&quot;font-size: 11px;&quot;&gt;首页&lt;/font&gt;&lt;/pre&gt;" style="ellipse;whiteSpace=wrap;html=1;aspect=fixed;" vertex="1" parent="1">
          <mxGeometry x="1065" y="445.01" width="30" height="30" as="geometry" />
        </mxCell>
        <mxCell id="-13MYeut4_JvDxcLs2VD-237" value="&lt;pre&gt;&lt;font style=&quot;font-size: 11px;&quot;&gt;我的&lt;/font&gt;&lt;/pre&gt;" style="ellipse;whiteSpace=wrap;html=1;aspect=fixed;fillColor=#dae8fc;strokeColor=#6c8ebf;" vertex="1" parent="1">
          <mxGeometry x="1150" y="445.01" width="30" height="30" as="geometry" />
        </mxCell>
        <mxCell id="-13MYeut4_JvDxcLs2VD-238" value="&lt;pre&gt;&lt;font style=&quot;font-size: 11px;&quot;&gt;消息&lt;/font&gt;&lt;/pre&gt;" style="ellipse;whiteSpace=wrap;html=1;aspect=fixed;" vertex="1" parent="1">
          <mxGeometry x="980" y="445.01" width="30" height="30" as="geometry" />
        </mxCell>
        <mxCell id="-13MYeut4_JvDxcLs2VD-239" value="导航栏" style="rounded=0;whiteSpace=wrap;html=1;" vertex="1" parent="1">
          <mxGeometry x="970" y="140.01" width="220" height="20" as="geometry" />
        </mxCell>
        <mxCell id="-13MYeut4_JvDxcLs2VD-240" value="分享列表" style="rounded=0;whiteSpace=wrap;html=1;" vertex="1" parent="1">
          <mxGeometry x="974" y="170.01" width="206" height="260" as="geometry" />
        </mxCell>
        <mxCell id="-13MYeut4_JvDxcLs2VD-241" value="" style="verticalLabelPosition=bottom;verticalAlign=top;html=1;shadow=0;dashed=0;strokeWidth=1;shape=mxgraph.android.phone2;strokeColor=#6c8ebf;fillColor=#000000;" vertex="1" parent="1">
          <mxGeometry x="960" y="1520" width="240" height="440" as="geometry" />
        </mxCell>
        <mxCell id="-13MYeut4_JvDxcLs2VD-242" value="状态栏" style="rounded=0;whiteSpace=wrap;html=1;" vertex="1" parent="1">
          <mxGeometry x="970" y="1560" width="220" height="20" as="geometry" />
        </mxCell>
        <mxCell id="-13MYeut4_JvDxcLs2VD-243" value="" style="rounded=0;whiteSpace=wrap;html=1;strokeWidth=1;" vertex="1" parent="1">
          <mxGeometry x="970" y="1880" width="220" height="40" as="geometry" />
        </mxCell>
        <mxCell id="-13MYeut4_JvDxcLs2VD-244" value="" style="rounded=0;whiteSpace=wrap;html=1;" vertex="1" parent="1">
          <mxGeometry x="970" y="1600" width="220" height="280" as="geometry" />
        </mxCell>
        <mxCell id="-13MYeut4_JvDxcLs2VD-245" value="&lt;pre&gt;&lt;font style=&quot;font-size: 11px;&quot;&gt;首页&lt;/font&gt;&lt;/pre&gt;" style="ellipse;whiteSpace=wrap;html=1;aspect=fixed;" vertex="1" parent="1">
          <mxGeometry x="1065" y="1885" width="30" height="30" as="geometry" />
        </mxCell>
        <mxCell id="-13MYeut4_JvDxcLs2VD-246" value="&lt;pre&gt;&lt;font style=&quot;font-size: 11px;&quot;&gt;我的&lt;/font&gt;&lt;/pre&gt;" style="ellipse;whiteSpace=wrap;html=1;aspect=fixed;fillColor=#dae8fc;strokeColor=#6c8ebf;" vertex="1" parent="1">
          <mxGeometry x="1150" y="1885" width="30" height="30" as="geometry" />
        </mxCell>
        <mxCell id="-13MYeut4_JvDxcLs2VD-247" value="&lt;pre&gt;&lt;font style=&quot;font-size: 11px;&quot;&gt;消息&lt;/font&gt;&lt;/pre&gt;" style="ellipse;whiteSpace=wrap;html=1;aspect=fixed;" vertex="1" parent="1">
          <mxGeometry x="980" y="1885" width="30" height="30" as="geometry" />
        </mxCell>
        <mxCell id="-13MYeut4_JvDxcLs2VD-248" value="导航栏" style="rounded=0;whiteSpace=wrap;html=1;" vertex="1" parent="1">
          <mxGeometry x="970" y="1580" width="220" height="20" as="geometry" />
        </mxCell>
        <mxCell id="-13MYeut4_JvDxcLs2VD-249" value="" style="rounded=0;whiteSpace=wrap;html=1;" vertex="1" parent="1">
          <mxGeometry x="974" y="1610" width="206" height="260" as="geometry" />
        </mxCell>
        <mxCell id="-13MYeut4_JvDxcLs2VD-251" value="9块" style="rounded=0;whiteSpace=wrap;html=1;align=right;" vertex="1" parent="1">
          <mxGeometry x="983" y="1620" width="190" height="40" as="geometry" />
        </mxCell>
        <mxCell id="-13MYeut4_JvDxcLs2VD-252" value="28块" style="rounded=0;whiteSpace=wrap;html=1;align=right;" vertex="1" parent="1">
          <mxGeometry x="982" y="1670" width="190" height="40" as="geometry" />
        </mxCell>
        <mxCell id="-13MYeut4_JvDxcLs2VD-253" value="68块" style="rounded=0;whiteSpace=wrap;html=1;align=right;" vertex="1" parent="1">
          <mxGeometry x="983" y="1720" width="190" height="40" as="geometry" />
        </mxCell>
        <mxCell id="-13MYeut4_JvDxcLs2VD-254" value="88块" style="rounded=0;whiteSpace=wrap;html=1;align=right;" vertex="1" parent="1">
          <mxGeometry x="982" y="1770" width="190" height="40" as="geometry" />
        </mxCell>
        <mxCell id="-13MYeut4_JvDxcLs2VD-255" value="168块" style="rounded=0;whiteSpace=wrap;html=1;align=right;" vertex="1" parent="1">
          <mxGeometry x="982" y="1820" width="190" height="40" as="geometry" />
        </mxCell>
        <mxCell id="-13MYeut4_JvDxcLs2VD-256" value="V1" style="text;html=1;strokeColor=none;fillColor=none;align=center;verticalAlign=middle;whiteSpace=wrap;rounded=0;" vertex="1" parent="1">
          <mxGeometry x="993" y="1625" width="150" height="30" as="geometry" />
        </mxCell>
        <mxCell id="-13MYeut4_JvDxcLs2VD-257" value="V2" style="text;html=1;strokeColor=none;fillColor=none;align=center;verticalAlign=middle;whiteSpace=wrap;rounded=0;" vertex="1" parent="1">
          <mxGeometry x="993" y="1675" width="150" height="30" as="geometry" />
        </mxCell>
        <mxCell id="-13MYeut4_JvDxcLs2VD-258" value="V3" style="text;html=1;strokeColor=none;fillColor=none;align=center;verticalAlign=middle;whiteSpace=wrap;rounded=0;" vertex="1" parent="1">
          <mxGeometry x="993" y="1725" width="150" height="30" as="geometry" />
        </mxCell>
        <mxCell id="-13MYeut4_JvDxcLs2VD-259" value="V4" style="text;html=1;strokeColor=none;fillColor=none;align=center;verticalAlign=middle;whiteSpace=wrap;rounded=0;" vertex="1" parent="1">
          <mxGeometry x="993" y="1775" width="150" height="30" as="geometry" />
        </mxCell>
        <mxCell id="-13MYeut4_JvDxcLs2VD-260" value="V5" style="text;html=1;strokeColor=none;fillColor=none;align=center;verticalAlign=middle;whiteSpace=wrap;rounded=0;" vertex="1" parent="1">
          <mxGeometry x="993" y="1825" width="150" height="30" as="geometry" />
        </mxCell>
        <mxCell id="-13MYeut4_JvDxcLs2VD-261" value="" style="verticalLabelPosition=bottom;verticalAlign=top;html=1;shadow=0;dashed=0;strokeWidth=1;shape=mxgraph.android.phone2;strokeColor=#6c8ebf;fillColor=#000000;" vertex="1" parent="1">
          <mxGeometry x="960" y="560" width="240" height="440" as="geometry" />
        </mxCell>
        <mxCell id="-13MYeut4_JvDxcLs2VD-262" value="状态栏" style="rounded=0;whiteSpace=wrap;html=1;" vertex="1" parent="1">
          <mxGeometry x="970" y="600" width="220" height="20" as="geometry" />
        </mxCell>
        <mxCell id="-13MYeut4_JvDxcLs2VD-263" value="" style="rounded=0;whiteSpace=wrap;html=1;strokeWidth=1;" vertex="1" parent="1">
          <mxGeometry x="970" y="920" width="220" height="40" as="geometry" />
        </mxCell>
        <mxCell id="-13MYeut4_JvDxcLs2VD-264" value="" style="rounded=0;whiteSpace=wrap;html=1;" vertex="1" parent="1">
          <mxGeometry x="970" y="640" width="220" height="280" as="geometry" />
        </mxCell>
        <mxCell id="-13MYeut4_JvDxcLs2VD-265" value="&lt;pre&gt;&lt;font style=&quot;font-size: 11px;&quot;&gt;首页&lt;/font&gt;&lt;/pre&gt;" style="ellipse;whiteSpace=wrap;html=1;aspect=fixed;" vertex="1" parent="1">
          <mxGeometry x="1065" y="925" width="30" height="30" as="geometry" />
        </mxCell>
        <mxCell id="-13MYeut4_JvDxcLs2VD-266" value="&lt;pre&gt;&lt;font style=&quot;font-size: 11px;&quot;&gt;我的&lt;/font&gt;&lt;/pre&gt;" style="ellipse;whiteSpace=wrap;html=1;aspect=fixed;fillColor=#dae8fc;strokeColor=#6c8ebf;" vertex="1" parent="1">
          <mxGeometry x="1150" y="925" width="30" height="30" as="geometry" />
        </mxCell>
        <mxCell id="-13MYeut4_JvDxcLs2VD-267" value="&lt;pre&gt;&lt;font style=&quot;font-size: 11px;&quot;&gt;消息&lt;/font&gt;&lt;/pre&gt;" style="ellipse;whiteSpace=wrap;html=1;aspect=fixed;" vertex="1" parent="1">
          <mxGeometry x="980" y="925" width="30" height="30" as="geometry" />
        </mxCell>
        <mxCell id="-13MYeut4_JvDxcLs2VD-268" value="导航栏" style="rounded=0;whiteSpace=wrap;html=1;" vertex="1" parent="1">
          <mxGeometry x="970" y="620" width="220" height="20" as="geometry" />
        </mxCell>
        <mxCell id="-13MYeut4_JvDxcLs2VD-269" value="" style="rounded=0;whiteSpace=wrap;html=1;" vertex="1" parent="1">
          <mxGeometry x="974" y="650" width="206" height="260" as="geometry" />
        </mxCell>
        <mxCell id="-13MYeut4_JvDxcLs2VD-271" value="" style="rounded=0;whiteSpace=wrap;html=1;" vertex="1" parent="1">
          <mxGeometry x="980" y="-300" width="190" height="180" as="geometry" />
        </mxCell>
        <mxCell id="-13MYeut4_JvDxcLs2VD-273" value="立即签到" style="rounded=0;whiteSpace=wrap;html=1;" vertex="1" parent="1">
          <mxGeometry x="980" y="-100" width="190" height="40" as="geometry" />
        </mxCell>
        <mxCell id="-13MYeut4_JvDxcLs2VD-283" style="edgeStyle=orthogonalEdgeStyle;rounded=0;orthogonalLoop=1;jettySize=auto;html=1;entryX=0.5;entryY=0;entryDx=0;entryDy=0;" edge="1" parent="1" source="-13MYeut4_JvDxcLs2VD-274" target="-13MYeut4_JvDxcLs2VD-277">
          <mxGeometry relative="1" as="geometry" />
        </mxCell>
        <mxCell id="-13MYeut4_JvDxcLs2VD-274" value="第一天" style="ellipse;whiteSpace=wrap;html=1;aspect=fixed;" vertex="1" parent="1">
          <mxGeometry x="990" y="-290" width="40" height="40" as="geometry" />
        </mxCell>
        <mxCell id="-13MYeut4_JvDxcLs2VD-276" value="领取福利" style="rounded=0;whiteSpace=wrap;html=1;" vertex="1" parent="1">
          <mxGeometry x="1040" y="-290" width="120" height="40" as="geometry" />
        </mxCell>
        <mxCell id="-13MYeut4_JvDxcLs2VD-284" style="edgeStyle=orthogonalEdgeStyle;rounded=0;orthogonalLoop=1;jettySize=auto;html=1;" edge="1" parent="1" source="-13MYeut4_JvDxcLs2VD-277" target="-13MYeut4_JvDxcLs2VD-279">
          <mxGeometry relative="1" as="geometry" />
        </mxCell>
        <mxCell id="-13MYeut4_JvDxcLs2VD-277" value="第二天" style="ellipse;whiteSpace=wrap;html=1;aspect=fixed;" vertex="1" parent="1">
          <mxGeometry x="990" y="-230" width="40" height="40" as="geometry" />
        </mxCell>
        <mxCell id="-13MYeut4_JvDxcLs2VD-278" value="领取福利" style="rounded=0;whiteSpace=wrap;html=1;" vertex="1" parent="1">
          <mxGeometry x="1040" y="-230" width="120" height="40" as="geometry" />
        </mxCell>
        <mxCell id="-13MYeut4_JvDxcLs2VD-279" value="第三天" style="ellipse;whiteSpace=wrap;html=1;aspect=fixed;" vertex="1" parent="1">
          <mxGeometry x="990" y="-170" width="40" height="40" as="geometry" />
        </mxCell>
        <mxCell id="-13MYeut4_JvDxcLs2VD-280" value="领取福利" style="rounded=0;whiteSpace=wrap;html=1;" vertex="1" parent="1">
          <mxGeometry x="1040" y="-170" width="120" height="40" as="geometry" />
        </mxCell>
        <mxCell id="-13MYeut4_JvDxcLs2VD-290" value="接收私信" style="strokeWidth=1;shadow=0;dashed=0;align=center;html=1;shape=mxgraph.mockup.text.textBox;fontColor=#666666;align=left;fontSize=17;spacingLeft=4;spacingTop=-3;whiteSpace=wrap;strokeColor=#666666;mainText=" vertex="1" parent="1">
          <mxGeometry x="980" y="665" width="190" height="30" as="geometry" />
        </mxCell>
        <mxCell id="-13MYeut4_JvDxcLs2VD-289" value="&lt;font style=&quot;font-size: 12px;&quot;&gt;ON&lt;/font&gt;" style="strokeWidth=1;shadow=0;dashed=0;align=left;html=1;shape=mxgraph.mockup.buttons.onOffButton;gradientColor=none;strokeColor=#999999;buttonState=on;fillColor2=#008cff;fontColor=#ffffff;fontSize=17;mainText=;spacingRight=40;fontStyle=1;whiteSpace=wrap;" vertex="1" parent="1">
          <mxGeometry x="1120" y="670" width="43" height="20" as="geometry" />
        </mxCell>
        <mxCell id="-13MYeut4_JvDxcLs2VD-292" value="消息提醒" style="strokeWidth=1;shadow=0;dashed=0;align=center;html=1;shape=mxgraph.mockup.text.textBox;fontColor=#666666;align=left;fontSize=17;spacingLeft=4;spacingTop=-3;whiteSpace=wrap;strokeColor=#666666;mainText=" vertex="1" parent="1">
          <mxGeometry x="980" y="710" width="190" height="30" as="geometry" />
        </mxCell>
        <mxCell id="-13MYeut4_JvDxcLs2VD-294" value="添加好友" style="strokeWidth=1;shadow=0;dashed=0;align=center;html=1;shape=mxgraph.mockup.text.textBox;fontColor=#666666;align=left;fontSize=17;spacingLeft=4;spacingTop=-3;whiteSpace=wrap;strokeColor=#666666;mainText=" vertex="1" parent="1">
          <mxGeometry x="980" y="755" width="190" height="30" as="geometry" />
        </mxCell>
        <mxCell id="-13MYeut4_JvDxcLs2VD-296" value="黑名单" style="strokeWidth=1;shadow=0;dashed=0;align=center;html=1;shape=mxgraph.mockup.text.textBox;fontColor=#666666;align=left;fontSize=17;spacingLeft=4;spacingTop=-3;whiteSpace=wrap;strokeColor=#666666;mainText=" vertex="1" parent="1">
          <mxGeometry x="980" y="800" width="190" height="30" as="geometry" />
        </mxCell>
        <mxCell id="-13MYeut4_JvDxcLs2VD-300" value="&lt;font style=&quot;font-size: 12px;&quot;&gt;ON&lt;/font&gt;" style="strokeWidth=1;shadow=0;dashed=0;align=left;html=1;shape=mxgraph.mockup.buttons.onOffButton;gradientColor=none;strokeColor=#999999;buttonState=on;fillColor2=#008cff;fontColor=#ffffff;fontSize=17;mainText=;spacingRight=40;fontStyle=1;whiteSpace=wrap;" vertex="1" parent="1">
          <mxGeometry x="1120" y="715" width="43" height="20" as="geometry" />
        </mxCell>
        <mxCell id="-13MYeut4_JvDxcLs2VD-301" value="&lt;font style=&quot;font-size: 12px;&quot;&gt;ON&lt;/font&gt;" style="strokeWidth=1;shadow=0;dashed=0;align=left;html=1;shape=mxgraph.mockup.buttons.onOffButton;gradientColor=none;strokeColor=#999999;buttonState=on;fillColor2=#008cff;fontColor=#ffffff;fontSize=17;mainText=;spacingRight=40;fontStyle=1;whiteSpace=wrap;" vertex="1" parent="1">
          <mxGeometry x="1120" y="765" width="43" height="20" as="geometry" />
        </mxCell>
        <mxCell id="-13MYeut4_JvDxcLs2VD-302" value="&lt;font style=&quot;font-size: 12px;&quot;&gt;ON&lt;/font&gt;" style="strokeWidth=1;shadow=0;dashed=0;align=left;html=1;shape=mxgraph.mockup.buttons.onOffButton;gradientColor=none;strokeColor=#999999;buttonState=on;fillColor2=#008cff;fontColor=#ffffff;fontSize=17;mainText=;spacingRight=40;fontStyle=1;whiteSpace=wrap;" vertex="1" parent="1">
          <mxGeometry x="1119" y="805" width="43" height="20" as="geometry" />
        </mxCell>
        <mxCell id="-13MYeut4_JvDxcLs2VD-304" value="" style="verticalLabelPosition=bottom;verticalAlign=top;html=1;shadow=0;dashed=0;strokeWidth=1;shape=mxgraph.android.phone2;strokeColor=#6c8ebf;fillColor=#000000;" vertex="1" parent="1">
          <mxGeometry x="960" y="1040" width="240" height="440" as="geometry" />
        </mxCell>
        <mxCell id="-13MYeut4_JvDxcLs2VD-305" value="状态栏" style="rounded=0;whiteSpace=wrap;html=1;" vertex="1" parent="1">
          <mxGeometry x="970" y="1080" width="220" height="20" as="geometry" />
        </mxCell>
        <mxCell id="-13MYeut4_JvDxcLs2VD-306" value="" style="rounded=0;whiteSpace=wrap;html=1;strokeWidth=1;" vertex="1" parent="1">
          <mxGeometry x="970" y="1400" width="220" height="40" as="geometry" />
        </mxCell>
        <mxCell id="-13MYeut4_JvDxcLs2VD-307" value="" style="rounded=0;whiteSpace=wrap;html=1;" vertex="1" parent="1">
          <mxGeometry x="970" y="1120" width="220" height="280" as="geometry" />
        </mxCell>
        <mxCell id="-13MYeut4_JvDxcLs2VD-308" value="&lt;pre&gt;&lt;font style=&quot;font-size: 11px;&quot;&gt;首页&lt;/font&gt;&lt;/pre&gt;" style="ellipse;whiteSpace=wrap;html=1;aspect=fixed;" vertex="1" parent="1">
          <mxGeometry x="1065" y="1405" width="30" height="30" as="geometry" />
        </mxCell>
        <mxCell id="-13MYeut4_JvDxcLs2VD-309" value="&lt;pre&gt;&lt;font style=&quot;font-size: 11px;&quot;&gt;我的&lt;/font&gt;&lt;/pre&gt;" style="ellipse;whiteSpace=wrap;html=1;aspect=fixed;fillColor=#dae8fc;strokeColor=#6c8ebf;" vertex="1" parent="1">
          <mxGeometry x="1150" y="1405" width="30" height="30" as="geometry" />
        </mxCell>
        <mxCell id="-13MYeut4_JvDxcLs2VD-310" value="&lt;pre&gt;&lt;font style=&quot;font-size: 11px;&quot;&gt;消息&lt;/font&gt;&lt;/pre&gt;" style="ellipse;whiteSpace=wrap;html=1;aspect=fixed;" vertex="1" parent="1">
          <mxGeometry x="980" y="1405" width="30" height="30" as="geometry" />
        </mxCell>
        <mxCell id="-13MYeut4_JvDxcLs2VD-311" value="导航栏" style="rounded=0;whiteSpace=wrap;html=1;" vertex="1" parent="1">
          <mxGeometry x="970" y="1100" width="220" height="20" as="geometry" />
        </mxCell>
        <mxCell id="-13MYeut4_JvDxcLs2VD-312" value="" style="rounded=0;whiteSpace=wrap;html=1;" vertex="1" parent="1">
          <mxGeometry x="974" y="1130" width="206" height="260" as="geometry" />
        </mxCell>
        <mxCell id="-13MYeut4_JvDxcLs2VD-314" value="&lt;p style=&quot;line-height: 100%;&quot;&gt;使用中有任何问题可留言反馈 |&lt;/p&gt;" style="rounded=0;whiteSpace=wrap;html=1;align=left;verticalAlign=top;" vertex="1" parent="1">
          <mxGeometry x="980" y="1140" width="190" height="80" as="geometry" />
        </mxCell>
        <mxCell id="-13MYeut4_JvDxcLs2VD-315" value="立即提交" style="rounded=0;whiteSpace=wrap;html=1;" vertex="1" parent="1">
          <mxGeometry x="1110" y="1230" width="60" height="20" as="geometry" />
        </mxCell>
        <mxCell id="-13MYeut4_JvDxcLs2VD-317" value="" style="verticalLabelPosition=bottom;verticalAlign=top;html=1;shadow=0;dashed=0;strokeWidth=1;shape=mxgraph.android.phone2;strokeColor=#6c8ebf;fillColor=#000000;" vertex="1" parent="1">
          <mxGeometry x="-170" y="-1390" width="240" height="440" as="geometry" />
        </mxCell>
        <mxCell id="-13MYeut4_JvDxcLs2VD-318" value="状态栏" style="rounded=0;whiteSpace=wrap;html=1;" vertex="1" parent="1">
          <mxGeometry x="-160" y="-1350" width="220" height="20" as="geometry" />
        </mxCell>
        <mxCell id="-13MYeut4_JvDxcLs2VD-319" value="" style="rounded=0;whiteSpace=wrap;html=1;strokeWidth=1;" vertex="1" parent="1">
          <mxGeometry x="-160" y="-1030" width="220" height="40" as="geometry" />
        </mxCell>
        <mxCell id="-13MYeut4_JvDxcLs2VD-320" value="" style="rounded=0;whiteSpace=wrap;html=1;" vertex="1" parent="1">
          <mxGeometry x="-160" y="-1310" width="220" height="280" as="geometry" />
        </mxCell>
        <mxCell id="-13MYeut4_JvDxcLs2VD-321" value="&lt;pre&gt;&lt;font style=&quot;font-size: 11px;&quot;&gt;首页&lt;/font&gt;&lt;/pre&gt;" style="ellipse;whiteSpace=wrap;html=1;aspect=fixed;fillColor=#dae8fc;strokeColor=#6c8ebf;" vertex="1" parent="1">
          <mxGeometry x="-65" y="-1025" width="30" height="30" as="geometry" />
        </mxCell>
        <mxCell id="-13MYeut4_JvDxcLs2VD-322" value="&lt;pre&gt;&lt;font style=&quot;font-size: 11px;&quot;&gt;我的&lt;/font&gt;&lt;/pre&gt;" style="ellipse;whiteSpace=wrap;html=1;aspect=fixed;" vertex="1" parent="1">
          <mxGeometry x="20" y="-1025" width="30" height="30" as="geometry" />
        </mxCell>
        <mxCell id="-13MYeut4_JvDxcLs2VD-323" value="&lt;pre&gt;&lt;font style=&quot;font-size: 11px;&quot;&gt;消息&lt;/font&gt;&lt;/pre&gt;" style="ellipse;whiteSpace=wrap;html=1;aspect=fixed;" vertex="1" parent="1">
          <mxGeometry x="-150" y="-1025" width="30" height="30" as="geometry" />
        </mxCell>
        <mxCell id="-13MYeut4_JvDxcLs2VD-324" value="导航栏" style="rounded=0;whiteSpace=wrap;html=1;" vertex="1" parent="1">
          <mxGeometry x="-160" y="-1330" width="220" height="20" as="geometry" />
        </mxCell>
        <mxCell id="-13MYeut4_JvDxcLs2VD-325" value="" style="rounded=0;whiteSpace=wrap;html=1;" vertex="1" parent="1">
          <mxGeometry x="-156" y="-1300" width="206" height="260" as="geometry" />
        </mxCell>
        <mxCell id="-13MYeut4_JvDxcLs2VD-326" value="" style="verticalLabelPosition=bottom;verticalAlign=top;html=1;shadow=0;dashed=0;strokeWidth=1;shape=mxgraph.android.phone2;strokeColor=#6c8ebf;fillColor=#000000;" vertex="1" parent="1">
          <mxGeometry x="-160" y="80.00999999999999" width="240" height="440" as="geometry" />
        </mxCell>
        <mxCell id="-13MYeut4_JvDxcLs2VD-327" value="状态栏" style="rounded=0;whiteSpace=wrap;html=1;" vertex="1" parent="1">
          <mxGeometry x="-150" y="120.00999999999999" width="220" height="20" as="geometry" />
        </mxCell>
        <mxCell id="-13MYeut4_JvDxcLs2VD-328" value="" style="rounded=0;whiteSpace=wrap;html=1;strokeWidth=1;" vertex="1" parent="1">
          <mxGeometry x="-150" y="440.01" width="220" height="40" as="geometry" />
        </mxCell>
        <mxCell id="-13MYeut4_JvDxcLs2VD-329" value="" style="rounded=0;whiteSpace=wrap;html=1;" vertex="1" parent="1">
          <mxGeometry x="-150" y="160.01" width="220" height="280" as="geometry" />
        </mxCell>
        <mxCell id="-13MYeut4_JvDxcLs2VD-330" value="&lt;pre&gt;&lt;font style=&quot;font-size: 11px;&quot;&gt;首页&lt;/font&gt;&lt;/pre&gt;" style="ellipse;whiteSpace=wrap;html=1;aspect=fixed;fillColor=#dae8fc;strokeColor=#6c8ebf;" vertex="1" parent="1">
          <mxGeometry x="-55" y="445.01" width="30" height="30" as="geometry" />
        </mxCell>
        <mxCell id="-13MYeut4_JvDxcLs2VD-331" value="&lt;pre&gt;&lt;font style=&quot;font-size: 11px;&quot;&gt;我的&lt;/font&gt;&lt;/pre&gt;" style="ellipse;whiteSpace=wrap;html=1;aspect=fixed;" vertex="1" parent="1">
          <mxGeometry x="30" y="445.01" width="30" height="30" as="geometry" />
        </mxCell>
        <mxCell id="-13MYeut4_JvDxcLs2VD-332" value="&lt;pre&gt;&lt;font style=&quot;font-size: 11px;&quot;&gt;消息&lt;/font&gt;&lt;/pre&gt;" style="ellipse;whiteSpace=wrap;html=1;aspect=fixed;" vertex="1" parent="1">
          <mxGeometry x="-140" y="445.01" width="30" height="30" as="geometry" />
        </mxCell>
        <mxCell id="-13MYeut4_JvDxcLs2VD-333" value="导航栏" style="rounded=0;whiteSpace=wrap;html=1;" vertex="1" parent="1">
          <mxGeometry x="-150" y="140.01" width="220" height="20" as="geometry" />
        </mxCell>
        <mxCell id="-13MYeut4_JvDxcLs2VD-334" value="" style="rounded=0;whiteSpace=wrap;html=1;" vertex="1" parent="1">
          <mxGeometry x="-146" y="170.01" width="206" height="260" as="geometry" />
        </mxCell>
        <mxCell id="-13MYeut4_JvDxcLs2VD-336" value="" style="rounded=0;whiteSpace=wrap;html=1;" vertex="1" parent="1">
          <mxGeometry x="-140" y="400" width="140" height="20.63" as="geometry" />
        </mxCell>
        <mxCell id="-13MYeut4_JvDxcLs2VD-337" value="发送" style="rounded=0;whiteSpace=wrap;html=1;" vertex="1" parent="1">
          <mxGeometry y="400" width="55" height="20.63" as="geometry" />
        </mxCell>
        <mxCell id="-13MYeut4_JvDxcLs2VD-338" value="" style="rounded=0;whiteSpace=wrap;html=1;" vertex="1" parent="1">
          <mxGeometry x="-140" y="180" width="190" height="210" as="geometry" />
        </mxCell>
        <mxCell id="-13MYeut4_JvDxcLs2VD-339" value="" style="ellipse;whiteSpace=wrap;html=1;aspect=fixed;" vertex="1" parent="1">
          <mxGeometry x="-130" y="192.5" width="27.5" height="27.5" as="geometry" />
        </mxCell>
        <mxCell id="-13MYeut4_JvDxcLs2VD-340" value="Text" style="text;html=1;strokeColor=none;fillColor=none;align=center;verticalAlign=middle;whiteSpace=wrap;rounded=0;" vertex="1" parent="1">
          <mxGeometry x="-115" y="191.25" width="60" height="30" as="geometry" />
        </mxCell>
        <mxCell id="-13MYeut4_JvDxcLs2VD-342" value="" style="ellipse;whiteSpace=wrap;html=1;aspect=fixed;" vertex="1" parent="1">
          <mxGeometry x="-130" y="231.25" width="27.5" height="27.5" as="geometry" />
        </mxCell>
        <mxCell id="-13MYeut4_JvDxcLs2VD-343" value="Text" style="text;html=1;strokeColor=none;fillColor=none;align=center;verticalAlign=middle;whiteSpace=wrap;rounded=0;" vertex="1" parent="1">
          <mxGeometry x="-115" y="230" width="60" height="30" as="geometry" />
        </mxCell>
        <mxCell id="-13MYeut4_JvDxcLs2VD-344" value="" style="ellipse;whiteSpace=wrap;html=1;aspect=fixed;" vertex="1" parent="1">
          <mxGeometry x="10" y="272.5" width="27.5" height="27.5" as="geometry" />
        </mxCell>
        <mxCell id="-13MYeut4_JvDxcLs2VD-345" value="Text" style="text;html=1;strokeColor=none;fillColor=none;align=center;verticalAlign=middle;whiteSpace=wrap;rounded=0;" vertex="1" parent="1">
          <mxGeometry x="-35" y="270" width="60" height="30" as="geometry" />
        </mxCell>
        <mxCell id="-13MYeut4_JvDxcLs2VD-346" value="" style="ellipse;whiteSpace=wrap;html=1;aspect=fixed;" vertex="1" parent="1">
          <mxGeometry x="-130" y="306.25" width="27.5" height="27.5" as="geometry" />
        </mxCell>
        <mxCell id="-13MYeut4_JvDxcLs2VD-347" value="Text" style="text;html=1;strokeColor=none;fillColor=none;align=center;verticalAlign=middle;whiteSpace=wrap;rounded=0;" vertex="1" parent="1">
          <mxGeometry x="-115" y="305" width="60" height="30" as="geometry" />
        </mxCell>
        <mxCell id="-13MYeut4_JvDxcLs2VD-361" value="" style="rounded=0;whiteSpace=wrap;html=1;" vertex="1" parent="1">
          <mxGeometry x="420" y="-370" width="200" height="260" as="geometry" />
        </mxCell>
        <mxCell id="-13MYeut4_JvDxcLs2VD-362" value="" style="verticalLabelPosition=bottom;shadow=0;dashed=0;align=center;html=1;verticalAlign=top;strokeWidth=1;shape=mxgraph.mockup.containers.userMale;strokeColor=#666666;strokeColor2=#008cff;" vertex="1" parent="1">
          <mxGeometry x="427" y="-360" width="20" height="20" as="geometry" />
        </mxCell>
        <mxCell id="-13MYeut4_JvDxcLs2VD-363" value="用户名" style="text;html=1;strokeColor=none;fillColor=none;align=center;verticalAlign=middle;whiteSpace=wrap;rounded=0;" vertex="1" parent="1">
          <mxGeometry x="447" y="-360" width="45" height="10" as="geometry" />
        </mxCell>
        <mxCell id="-13MYeut4_JvDxcLs2VD-364" value="发布时间" style="text;html=1;strokeColor=none;fillColor=none;align=center;verticalAlign=middle;whiteSpace=wrap;rounded=0;" vertex="1" parent="1">
          <mxGeometry x="492" y="-362.5" width="50" height="15" as="geometry" />
        </mxCell>
        <mxCell id="-13MYeut4_JvDxcLs2VD-365" value="发布内容发布内容发布内容发布内容发布内容发布内容发布内容发布内容发布内容发布内" style="text;html=1;strokeColor=none;fillColor=none;align=center;verticalAlign=middle;whiteSpace=wrap;rounded=0;" vertex="1" parent="1">
          <mxGeometry x="447" y="-328.75" width="160" height="27.5" as="geometry" />
        </mxCell>
        <mxCell id="-13MYeut4_JvDxcLs2VD-366" value="评论" style="rounded=0;whiteSpace=wrap;html=1;" vertex="1" parent="1">
          <mxGeometry x="430" y="-280" width="180" height="30" as="geometry" />
        </mxCell>
        <mxCell id="-13MYeut4_JvDxcLs2VD-367" value="评论" style="rounded=0;whiteSpace=wrap;html=1;" vertex="1" parent="1">
          <mxGeometry x="430" y="-240" width="180" height="30" as="geometry" />
        </mxCell>
        <mxCell id="-13MYeut4_JvDxcLs2VD-368" value="评论" style="rounded=0;whiteSpace=wrap;html=1;" vertex="1" parent="1">
          <mxGeometry x="430" y="-200" width="180" height="30" as="geometry" />
        </mxCell>
        <mxCell id="-13MYeut4_JvDxcLs2VD-369" value="私信（vip）" style="rounded=0;whiteSpace=wrap;html=1;" vertex="1" parent="1">
          <mxGeometry x="520" y="-140" width="90" height="20" as="geometry" />
        </mxCell>
        <mxCell id="-13MYeut4_JvDxcLs2VD-370" value="留言" style="rounded=0;whiteSpace=wrap;html=1;" vertex="1" parent="1">
          <mxGeometry x="430" y="-140" width="90" height="20" as="geometry" />
        </mxCell>
        <mxCell id="-13MYeut4_JvDxcLs2VD-382" style="edgeStyle=orthogonalEdgeStyle;rounded=0;orthogonalLoop=1;jettySize=auto;html=1;entryX=0.497;entryY=-0.003;entryDx=0;entryDy=0;entryPerimeter=0;" edge="1" parent="1" source="-13MYeut4_JvDxcLs2VD-371" target="-13MYeut4_JvDxcLs2VD-373">
          <mxGeometry relative="1" as="geometry" />
        </mxCell>
        <mxCell id="-13MYeut4_JvDxcLs2VD-371" value="+" style="ellipse;whiteSpace=wrap;html=1;aspect=fixed;" vertex="1" parent="1">
          <mxGeometry x="505" y="445" width="30" height="30" as="geometry" />
        </mxCell>
        <mxCell id="-13MYeut4_JvDxcLs2VD-373" value="" style="verticalLabelPosition=bottom;verticalAlign=top;html=1;shadow=0;dashed=0;strokeWidth=1;shape=mxgraph.android.phone2;strokeColor=#6c8ebf;fillColor=#000000;" vertex="1" parent="1">
          <mxGeometry x="400" y="600" width="240" height="440" as="geometry" />
        </mxCell>
        <mxCell id="-13MYeut4_JvDxcLs2VD-374" value="状态栏" style="rounded=0;whiteSpace=wrap;html=1;" vertex="1" parent="1">
          <mxGeometry x="410" y="640" width="220" height="20" as="geometry" />
        </mxCell>
        <mxCell id="-13MYeut4_JvDxcLs2VD-375" value="" style="rounded=0;whiteSpace=wrap;html=1;strokeWidth=1;" vertex="1" parent="1">
          <mxGeometry x="410" y="960" width="220" height="40" as="geometry" />
        </mxCell>
        <mxCell id="-13MYeut4_JvDxcLs2VD-376" value="" style="rounded=0;whiteSpace=wrap;html=1;" vertex="1" parent="1">
          <mxGeometry x="410" y="680" width="220" height="280" as="geometry" />
        </mxCell>
        <mxCell id="-13MYeut4_JvDxcLs2VD-377" value="&lt;pre&gt;&lt;font style=&quot;font-size: 11px;&quot;&gt;首页&lt;/font&gt;&lt;/pre&gt;" style="ellipse;whiteSpace=wrap;html=1;aspect=fixed;fillColor=#dae8fc;strokeColor=#6c8ebf;" vertex="1" parent="1">
          <mxGeometry x="505" y="965" width="30" height="30" as="geometry" />
        </mxCell>
        <mxCell id="-13MYeut4_JvDxcLs2VD-378" value="&lt;pre&gt;&lt;font style=&quot;font-size: 11px;&quot;&gt;我的&lt;/font&gt;&lt;/pre&gt;" style="ellipse;whiteSpace=wrap;html=1;aspect=fixed;" vertex="1" parent="1">
          <mxGeometry x="590" y="965" width="30" height="30" as="geometry" />
        </mxCell>
        <mxCell id="-13MYeut4_JvDxcLs2VD-379" value="&lt;pre&gt;&lt;font style=&quot;font-size: 11px;&quot;&gt;消息&lt;/font&gt;&lt;/pre&gt;" style="ellipse;whiteSpace=wrap;html=1;aspect=fixed;" vertex="1" parent="1">
          <mxGeometry x="420" y="965" width="30" height="30" as="geometry" />
        </mxCell>
        <mxCell id="-13MYeut4_JvDxcLs2VD-380" value="导航栏" style="rounded=0;whiteSpace=wrap;html=1;" vertex="1" parent="1">
          <mxGeometry x="410" y="660" width="220" height="20" as="geometry" />
        </mxCell>
        <mxCell id="-13MYeut4_JvDxcLs2VD-381" value="" style="rounded=0;whiteSpace=wrap;html=1;" vertex="1" parent="1">
          <mxGeometry x="414" y="690" width="206" height="260" as="geometry" />
        </mxCell>
        <mxCell id="-13MYeut4_JvDxcLs2VD-383" value="发布消息 |" style="rounded=0;whiteSpace=wrap;html=1;align=left;verticalAlign=top;" vertex="1" parent="1">
          <mxGeometry x="422" y="710" width="188" height="160" as="geometry" />
        </mxCell>
        <mxCell id="-13MYeut4_JvDxcLs2VD-385" value="发布消息" style="rounded=0;whiteSpace=wrap;html=1;" vertex="1" parent="1">
          <mxGeometry x="550" y="880" width="60" height="30" as="geometry" />
        </mxCell>
        <mxCell id="-13MYeut4_JvDxcLs2VD-386" value="图片" style="ellipse;whiteSpace=wrap;html=1;aspect=fixed;" vertex="1" parent="1">
          <mxGeometry x="422" y="875" width="28" height="28" as="geometry" />
        </mxCell>
        <mxCell id="-13MYeut4_JvDxcLs2VD-387" value="语音" style="ellipse;whiteSpace=wrap;html=1;aspect=fixed;" vertex="1" parent="1">
          <mxGeometry x="458.5" y="875" width="28" height="28" as="geometry" />
        </mxCell>
        <mxCell id="-13MYeut4_JvDxcLs2VD-389" value="#地址" style="text;html=1;strokeColor=none;fillColor=none;align=center;verticalAlign=middle;whiteSpace=wrap;rounded=0;" vertex="1" parent="1">
          <mxGeometry x="550" y="170.01" width="60" height="30" as="geometry" />
        </mxCell>
      </root>
    </mxGraphModel>
  </diagram>
</mxfile>
